<svg width="196" height="46" viewBox="0 0 196 46" fill="none" xmlns="http://www.w3.org/2000/svg">
<g clip-path="url(#clip0)">
<path d="M102.412 24.8192V33.2192C102.412 34.0592 102.619 34.7059 103.032 35.1592C103.445 35.6126 104.052 35.8392 104.852 35.8392C105.652 35.8392 106.265 35.6126 106.692 35.1592C107.119 34.7059 107.332 34.0592 107.332 33.2192V24.8192H110.752V33.1992C110.752 34.4526 110.485 35.5126 109.952 36.3792C109.419 37.2459 108.699 37.8992 107.792 38.3392C106.899 38.7792 105.899 38.9992 104.792 38.9992C103.685 38.9992 102.692 38.7859 101.812 38.3592C100.945 37.9192 100.259 37.2659 99.7521 36.3992C99.2455 35.5192 98.9921 34.4526 98.9921 33.1992V24.8192H102.412ZM123.665 24.8192V38.8592H120.245V24.8192H123.665ZM134.834 39.0192C134.234 39.0192 133.741 38.8459 133.354 38.4992C132.981 38.1392 132.794 37.6992 132.794 37.1792C132.794 36.6459 132.981 36.1992 133.354 35.8392C133.741 35.4792 134.234 35.2992 134.834 35.2992C135.421 35.2992 135.901 35.4792 136.274 35.8392C136.661 36.1992 136.854 36.6459 136.854 37.1792C136.854 37.6992 136.661 38.1392 136.274 38.4992C135.901 38.8459 135.421 39.0192 134.834 39.0192ZM145.289 33.2792C145.289 32.1192 145.523 31.1059 145.989 30.2392C146.469 29.3726 147.129 28.7059 147.969 28.2392C148.823 27.7726 149.796 27.5392 150.889 27.5392C152.289 27.5392 153.456 27.9059 154.389 28.6392C155.336 29.3726 155.956 30.4059 156.249 31.7392H152.609C152.303 30.8859 151.709 30.4592 150.829 30.4592C150.203 30.4592 149.703 30.7059 149.329 31.1992C148.956 31.6792 148.769 32.3726 148.769 33.2792C148.769 34.1859 148.956 34.8859 149.329 35.3792C149.703 35.8592 150.203 36.0992 150.829 36.0992C151.709 36.0992 152.303 35.6726 152.609 34.8192H156.249C155.956 36.1259 155.336 37.1526 154.389 37.8992C153.443 38.6459 152.276 39.0192 150.889 39.0192C149.796 39.0192 148.823 38.7859 147.969 38.3192C147.129 37.8526 146.469 37.1859 145.989 36.3192C145.523 35.4526 145.289 34.4392 145.289 33.2792ZM171.97 27.5792C173.276 27.5792 174.316 28.0059 175.09 28.8592C175.876 29.6992 176.27 30.8592 176.27 32.3392V38.8592H172.87V32.7992C172.87 32.0526 172.676 31.4726 172.29 31.0592C171.903 30.6459 171.383 30.4392 170.73 30.4392C170.076 30.4392 169.556 30.6459 169.17 31.0592C168.783 31.4726 168.59 32.0526 168.59 32.7992V38.8592H165.17V27.6992H168.59V29.1792C168.936 28.6859 169.403 28.2992 169.99 28.0192C170.576 27.7259 171.236 27.5792 171.97 27.5792Z" fill="#111029"/>
<rect x="26.8121" y="6.8176" width="32" height="16" transform="rotate(90 26.8121 6.8176)" fill="#111111"/>
<circle cx="42.8121" cy="22.8176" r="16" fill="#FF0000"/>
<circle cx="74.8121" cy="22.8176" r="16" fill="#FF0000"/>
</g>
<defs>
<clipPath id="clip0">
<rect width="174" height="32" fill="white" transform="translate(10.8121 6.8176)"/>
</clipPath>
</defs>
</svg>
